<svg width="30" height="30" viewBox="0 0 30 30" fill="none" xmlns="http://www.w3.org/2000/svg">
<path fill-rule="evenodd" clip-rule="evenodd" d="M2.06929 0.0494337C1.03152 0.280882 0.237607 1.11577 0.0448467 2.17825C0.00394235 2.40343 -0.0118706 2.68059 0.00956174 2.79409C0.0487018 3.00099 2.66821 13.5676 2.68716 13.5948C2.69265 13.6027 3.82765 13.7133 5.20932 13.8405C6.59098 13.9677 8.03021 14.1005 8.40756 14.1355C8.78492 14.1705 10.5345 14.3328 12.2954 14.4961C14.0564 14.6595 15.9016 14.8266 16.3957 14.8675C16.8899 14.9084 17.2941 14.9611 17.2941 14.9844C17.2941 15.0078 16.8899 15.0605 16.3957 15.1014C15.9016 15.1423 14.0564 15.3094 12.2954 15.4727C10.5345 15.6361 8.78492 15.7984 8.40756 15.8334C8.03021 15.8684 6.59098 16.0011 5.20932 16.1284C3.82765 16.2556 2.69265 16.3661 2.68716 16.3741C2.66821 16.4013 0.0487018 26.9679 0.00956174 27.1748C-0.0118706 27.2883 0.00394235 27.5654 0.0448467 27.7906C0.244925 28.8933 1.08719 29.7381 2.18514 29.9371C3.06092 30.0958 2.2412 30.4723 16.1427 23.5263C27.6608 17.7712 28.8437 17.1657 29.1695 16.8578C30.2766 15.8114 30.2769 14.1578 29.1702 13.1118C28.8456 12.8049 27.6597 12.1977 16.2741 6.50752C9.3779 3.061 3.60326 0.196374 3.44154 0.141647C3.00669 -0.00542431 2.47545 -0.0411472 2.06929 0.0494337Z" fill="#167FE0"/>
</svg>
